<?xml version="1.0" encoding="UTF-8" standalone="no"?>
<!DOCTYPE svg PUBLIC "-//W3C//DTD SVG 1.1//EN" "http://www.w3.org/Graphics/SVG/1.1/DTD/svg11.dtd">
<svg width="3926px" height="3595px" version="1.1" xmlns="http://www.w3.org/2000/svg" xmlns:xlink="http://www.w3.org/1999/xlink" xml:space="preserve" xmlns:serif="http://www.serif.com/" style="fill-rule:evenodd;clip-rule:evenodd;stroke-linejoin:round;stroke-miterlimit:2;">
    <rect id="画板3" x="0" y="0" width="3925.11" height="3594.76" style="fill:none;"/>
    <g>
        <path d="M2755.69,740.123c0,-145.909 -118.282,-264.192 -264.192,-264.192c-293.455,0 -764.44,0 -1057.89,0c-145.909,0 -264.192,118.283 -264.192,264.192l0,0.001c0,145.91 118.283,264.192 264.192,264.192c293.455,0 764.44,0 1057.89,0c145.91,0 264.192,-118.282 264.192,-264.192l0,-0.001Z" style="fill:url(#_Linear1);"/>
        <path d="M2755.69,1799.78c0,-145.909 -118.282,-264.192 -264.192,-264.192c-293.455,0 -764.44,0 -1057.89,0c-145.909,0 -264.192,118.283 -264.192,264.192c0,0.001 0,0.001 0,0.001c0,145.91 118.283,264.192 264.192,264.192l1057.89,0c145.91,0 264.192,-118.282 264.192,-264.192c0,0 0,0 0,-0.001Z" style="fill:#2aadad;fill-opacity:0.2;"/>
        <path d="M2755.69,1799.78c0,-145.909 -118.282,-264.192 -264.192,-264.192l-440.561,0c-145.91,0 -264.192,118.283 -264.192,264.192c0,0.001 0,0.001 0,0.001c0,145.91 118.282,264.192 264.192,264.192l440.561,0c145.91,0 264.192,-118.282 264.192,-264.192l0,-0.001Z" style="fill:url(#_Linear2);"/>
        <path d="M2755.69,2854.63c0,-145.909 -118.282,-264.192 -264.192,-264.192l-1057.89,0c-145.909,0 -264.192,118.283 -264.192,264.192c0,0 0,0.001 0,0.001c0,145.909 118.283,264.192 264.192,264.192c293.455,0 764.44,0 1057.89,0c145.91,0 264.192,-118.283 264.192,-264.192c0,0 0,-0.001 0,-0.001Z" style="fill:#2aadad;fill-opacity:0.2;"/>
        <path d="M2138.36,2854.63c0,-145.909 -118.283,-264.192 -264.192,-264.192c-136.914,0 -303.648,0 -440.562,0c-145.909,0 -264.192,118.283 -264.192,264.192c0,0 0,0.001 0,0.001c0,145.909 118.283,264.192 264.192,264.192c136.914,0 303.648,0 440.562,0c145.909,0 264.192,-118.283 264.192,-264.192l0,-0.001Z" style="fill:url(#_Linear3);"/>
    </g>
    <defs>
        <linearGradient id="_Linear1" x1="0" y1="0" x2="1" y2="-0.0382168" gradientUnits="userSpaceOnUse" gradientTransform="matrix(662.183,-376.326,392.738,634.512,2241.74,852.257)"><stop offset="0" style="stop-color:#2aadad;stop-opacity:1"/><stop offset="1" style="stop-color:#afbddc;stop-opacity:1"/></linearGradient>
        <linearGradient id="_Linear2" x1="0" y1="0" x2="1" y2="0.308049" gradientUnits="userSpaceOnUse" gradientTransform="matrix(404.481,-376.326,239.896,634.512,2441.76,1911.91)"><stop offset="0" style="stop-color:#2aadad;stop-opacity:1"/><stop offset="1" style="stop-color:#afbddc;stop-opacity:1"/></linearGradient>
        <linearGradient id="_Linear3" x1="0" y1="0" x2="1" y2="0.308049" gradientUnits="userSpaceOnUse" gradientTransform="matrix(404.481,-376.326,239.896,634.512,1824.42,2966.77)"><stop offset="0" style="stop-color:#2aadad;stop-opacity:1"/><stop offset="1" style="stop-color:#afbddc;stop-opacity:1"/></linearGradient>
    </defs>
</svg>
