<svg t="1612510556255" class="icon" viewBox="0 0 1024 1024" version="1.1" xmlns="http://www.w3.org/2000/svg" p-id="4344" width="200" height="200"><path d="M810.666667 170.666667h-85.333334a42.666667 42.666667 0 0 0 0 85.333333h42.666667v512h-42.666667a42.666667 42.666667 0 0 0 0 85.333333h85.333334a42.666667 42.666667 0 0 0 42.666666-42.666666V213.333333a42.666667 42.666667 0 0 0-42.666666-42.666666zM503.466667 315.733333a42.666667 42.666667 0 0 0-68.266667 51.2L512 469.333333H170.666667a42.666667 42.666667 0 0 0 0 85.333334h345.173333l-73.386667 104.106666a42.666667 42.666667 0 0 0 10.24 59.733334 42.666667 42.666667 0 0 0 24.746667 7.68 42.666667 42.666667 0 0 0 34.56-17.92l120.32-170.666667a42.666667 42.666667 0 0 0 0-50.346667z" p-id="4345" fill="hsla(125,30%,50%,1)"></path></svg>