<?xml version="1.0" standalone="no"?><!DOCTYPE svg PUBLIC "-//W3C//DTD SVG 1.1//EN" "http://www.w3.org/Graphics/SVG/1.1/DTD/svg11.dtd"><svg t="1592991109073" class="icon" viewBox="0 0 1069 1024" version="1.1" xmlns="http://www.w3.org/2000/svg" p-id="4694" xmlns:xlink="http://www.w3.org/1999/xlink" width="208.7890625" height="200"><defs><style type="text/css"></style></defs><path d="M800.148837 807.293023h64.297675l38.102325 76.204651s54.772093-76.204651 66.67907-80.967441c57.153488-16.669767 100.018605-71.44186 100.018605-133.35814v-40.483721c0-76.204651-61.916279-140.502326-140.502326-140.502325h-128.595349c-76.204651 0-140.502326 61.916279-140.502325 140.502325v40.483721c2.381395 76.204651 64.297674 138.12093 140.502325 138.12093z" fill="#F50000" p-id="4695"></path><path d="M642.976744 666.790698v-42.865117c0-83.348837 69.060465-152.409302 152.409303-152.409302h111.925581c0-7.144186 2.381395-16.669767 2.381395-23.813953V357.209302c0-171.460465-140.502326-311.962791-311.96279-311.96279h-285.767442C138.12093 45.246512 0 185.748837 0 357.209302v90.493024c0 140.502326 92.874419 259.572093 221.469767 300.055814 28.576744 9.525581 147.646512 180.986047 147.646512 180.986046l85.730233-169.07907h142.883721c23.813953 0 47.627907-2.381395 71.44186-9.525581-16.669767-23.813953-26.195349-52.390698-26.195349-83.348837z m-192.893023-71.441861c-121.451163 0-216.706977-64.297674-216.706977-147.646511 0-14.288372 9.525581-23.813953 23.813954-23.813954s23.813953 9.525581 23.813953 23.813954c0 54.772093 76.204651 100.018605 169.07907 100.018604s169.07907-45.246512 169.07907-100.018604c0-14.288372 9.525581-23.813953 23.813953-23.813954s23.813953 9.525581 23.813954 23.813954c0 83.348837-95.255814 147.646512-216.706977 147.646511z" fill="#F50000" p-id="4696"></path></svg>