<?xml version="1.0" standalone="no"?><!DOCTYPE svg PUBLIC "-//W3C//DTD SVG 1.1//EN" "http://www.w3.org/Graphics/SVG/1.1/DTD/svg11.dtd"><svg t="1592991172261" class="icon" viewBox="0 0 1024 1024" version="1.1" xmlns="http://www.w3.org/2000/svg" p-id="5589" xmlns:xlink="http://www.w3.org/1999/xlink" width="200" height="200"><defs><style type="text/css"></style></defs><path d="M34.107077 516.371692c0 270.966154 219.687385 490.653538 490.692923 490.653539 270.966154 0 490.653538-219.687385 490.653538-490.653539C1015.453538 245.366154 795.805538 25.678769 524.839385 25.678769 253.794462 25.678769 34.107077 245.366154 34.107077 516.371692z" fill="#C3E9FF" p-id="5590"></path><path d="M592.187077 745.038769a79.123692 79.123692 0 0 1-155.490462 6.065231l-1.142153-6.065231h156.632615zM485.927385 231.187692A52.184615 52.184615 0 0 1 565.641846 281.678769c17.092923 4.371692 33.240615 10.791385 48.167385 18.944a155.175385 155.175385 0 0 0 106.456615 268.012308l2.402462-0.078769v83.88923h31.192615a21.740308 21.740308 0 0 1 3.544615 43.204924l-3.544615 0.315076h-70.498461v-0.078769H366.985846v0.078769h-87.827692a21.740308 21.740308 0 0 1-3.544616-43.244307l3.544616-0.275693h25.993846v-168.408615A208.896 208.896 0 0 1 461.981538 281.678769a52.184615 52.184615 0 0 1 23.906462-50.491077z" fill="#006FD3" p-id="5591"></path><path d="M720.305231 413.459692m-105.590154 0a105.590154 105.590154 0 1 0 211.180308 0 105.590154 105.590154 0 1 0-211.180308 0Z" fill="#59A3E9" p-id="5592"></path></svg>